<svg xmlns="http://www.w3.org/2000/svg" viewBox="0 0 24 24" id="php"><path fill="#878EB7" d="M12 18.5c6.626 0 12-2.908 12-6.5 0-3.591-5.374-6.5-12-6.5S0 8.408 0 12s5.374 6.5 12 6.5z"></path><path fill="#23282C" d="m5.029 15.642.326-1.73c1.542 0 2.497.116 3.382-.737.978-.927 1.234-2.576.536-3.403-.363-.433-.948-.646-1.743-.646H4.878l-1.226 6.516H5.029zm1.038-5.488c1.425 0 2.393-.158 2.115 1.325v-.001c-.296 1.564-1.342 1.402-2.629 1.402l.514-2.726zm4.691 3.75.705-3.731c1.114 0 1.575-.046 1.778.178.21.232.102.487-.476 3.554h1.387c.6-3.171.866-3.843.311-4.368-.529-.502-1.623-.414-2.805-.414l.326-1.73h-1.369L9.39 13.904h1.368zm5.029 1.738.326-1.73c1.62 0 2.516.096 3.382-.737.978-.927 1.234-2.576.536-3.403-.364-.433-.949-.645-1.744-.645h-2.651l-1.23 6.516h1.381zm1.035-5.488c1.433 0 2.393-.158 2.115 1.325v-.001c-.3 1.588-1.376 1.402-2.629 1.402l.514-2.726z"></path></svg>